<svg xmlns="http://www.w3.org/2000/svg" width="38.525" height="48.978" viewBox="0 0 38.525 48.978">
  <path id="Path_196" data-name="Path 196" d="M89.681,32.733A40.459,40.459,0,0,0,81.6,30.65L80.925,27.5a15.486,15.486,0,0,1,3.067,1.475h0a1.425,1.425,0,0,0,1.929-.338A17.732,17.732,0,0,0,89.276,18.1C89.286,9.223,83.085,2,75.467,2S61.648,9.223,61.648,18.095a17.736,17.736,0,0,0,3.394,10.579A1.377,1.377,0,0,0,66.894,29a15.158,15.158,0,0,1,3.115-1.533l-.685,3.182a41.123,41.123,0,0,0-8.081,2.083A7.767,7.767,0,0,0,56.2,39.975v9.643a1.358,1.358,0,0,0,1.36,1.36H93.365a1.358,1.358,0,0,0,1.36-1.36V39.975A7.763,7.763,0,0,0,89.681,32.733ZM75.467,26.812c-2.845,0-5.236-3.038-5.564-6.914a19.668,19.668,0,0,0,6.528-6.365,20.2,20.2,0,0,0,4.32,2.825,10.389,10.389,0,0,1,.338,2.613C81.08,23.292,78.563,26.812,75.467,26.812Zm0,2.719a6.82,6.82,0,0,0,2.96-.7l.762,3.529c-.116,1.572-2.372,3.24-3.722,4.05-1.466-.878-3.607-2.546-3.713-4.05l.752-3.51A6.739,6.739,0,0,0,75.467,29.531Zm-.617,9.653a1.368,1.368,0,0,0,1.225,0c.53-.27,4.764-2.5,5.661-5.747,1.119.183,2.228.415,3.317.7a9.6,9.6,0,0,1-19.171,0c1.1-.289,2.208-.511,3.317-.7C70.086,36.677,74.32,38.914,74.85,39.184ZM66.538,26.041a15.216,15.216,0,0,1-2.17-7.936c0-7.377,4.976-13.375,11.1-13.375s11.1,6,11.1,13.375a15.191,15.191,0,0,1-2.17,7.936,19.281,19.281,0,0,0-2.122-.993,12.756,12.756,0,0,0,1.495-7.126,13.111,13.111,0,0,0-.656-3.153,1.459,1.459,0,0,0-.675-.627,18.058,18.058,0,0,1-5.371-3.713h0a1.367,1.367,0,0,0-2.17.328,16.879,16.879,0,0,1-7.02,7.155h0a1.366,1.366,0,0,0-.743,1.225h0a12.665,12.665,0,0,0,1.495,5.921A17.208,17.208,0,0,0,66.538,26.041ZM92.005,48.268H58.929V39.985a5.031,5.031,0,0,1,3.279-4.7c.328-.125.675-.231,1-.347a12.335,12.335,0,0,0,24.523,0c.338.116.675.222,1,.347a5.044,5.044,0,0,1,3.279,4.7v8.284Z" transform="translate(-56.2 -2)" fill="#db5561"/>
</svg>
