<svg id="Group_14245" data-name="Group 14245" xmlns="http://www.w3.org/2000/svg" width="200.29" height="105.451" viewBox="0 0 200.29 105.451">
  <g id="Group_14244" data-name="Group 14244" transform="translate(0 0)">
    <path id="Path_1" data-name="Path 1" d="M635.422,362.043c-4.9,0-9.677-.012-14.456.015-.582,0-.71-.324-.911-.729-2.606-5.252-5.233-10.493-7.834-15.747a1.631,1.631,0,0,0-1.64-1.025c-9.179-.31-18.356-.686-27.534-1.035-7.4-.281-14.8-.543-22.2-.827q-13.673-.524-27.345-1.068c-3.84-.148-7.681-.266-11.52-.426a1.28,1.28,0,0,0-1.336.712,160.947,160.947,0,0,0-8.932,17.072c-.149.33-.313.654-.469.981l-.254-.115,8.4-18.742-27.367-1.042,0-.109c2.045-.082,4.09-.17,6.135-.246q10.911-.4,21.822-.8a1.105,1.105,0,0,0,1.112-.639,124.369,124.369,0,0,1,9.229-14.973c5.7-8.058,12.255-15.305,20.617-20.727,7.224-4.684,15.055-7.366,23.767-6.922a38.91,38.91,0,0,1,18.906,6.2c7.537,4.725,13.642,10.986,19.1,17.923a130.2,130.2,0,0,1,15.24,24.634c2.675,5.62,4.909,11.449,7.339,17.185A4.512,4.512,0,0,1,635.422,362.043Zm-74.473-24.712c1.044-9.564,2.078-19.033,3.144-28.8-2.5.43-4.761.8-7.013,1.238-.221.043-.48.461-.527.738-.239,1.414-.412,2.838-.611,4.258q-1.177,8.382-2.356,16.765c-.281,2-.559,4-.854,6.114Zm13.95-.527L576.25,310.4l-6.839-1.574-3.089,28.3Zm6.218-24.5c-.477,8.339-.932,16.3-1.39,24.311l8.1-.309a2.5,2.5,0,0,0,.084-.416q.111-9.367.205-18.734a.743.743,0,0,0-.2-.556C585.725,315.191,583.517,313.811,581.116,312.3Zm-33.764,25.647,3.635-26.234c-2.126,1.194-3.982,2.262-5.866,3.278a1.95,1.95,0,0,0-1,1.551c-1.027,5.477-2.084,10.948-3.127,16.422-.322,1.69-.631,3.382-.93,4.983Zm-24.718.842,12.278-.464c1.148-6.033,2.285-12.018,3.469-18.239A88.275,88.275,0,0,0,522.634,338.79Zm70.774-17.744V336.1l12.525-.49A85.848,85.848,0,0,0,593.408,321.046Z" transform="translate(-492.025 -295.608)" fill="#1473e6"/>
    <path id="Path_2" data-name="Path 2" d="M1065.351,347.689l-25.9-.974,6.486,15.291c-.5.022-.8.046-1.095.047-4.406,0-8.812-.012-13.217.016a1.16,1.16,0,0,1-1.238-.807c-2.334-4.829-4.732-9.626-7.089-14.443a1.286,1.286,0,0,0-1.312-.77c-5.493-.19-10.985-.436-16.478-.63a1.266,1.266,0,0,1-1.239-.848c-1.492-2.95-3.043-5.87-4.569-8.8-.14-.268-.256-.549-.419-.9l15.989-.626c-.187-.3-.313-.534-.466-.749a76.605,76.605,0,0,0-8.964-10.547c-5.988-5.835-12.673-10.616-20.858-12.94a13,13,0,0,0-2.63-.625,6.239,6.239,0,0,1-4.1-2.075,57.729,57.729,0,0,0-9.937-7.779c-.179-.112-.339-.254-.574-.431a36.968,36.968,0,0,1,10.062-3.053c9.507-1.444,18.2.877,26.286,5.828a70.644,70.644,0,0,1,19.725,18.711c2.874,3.881,5.424,8,8.07,12.051a1.6,1.6,0,0,0,1.6.922c7.335-.3,14.672-.545,22.008-.816,3.266-.121,6.531-.261,9.87-.4Z" transform="translate(-865.061 -295.614)" fill="#d50f21"/>
  </g>
  <text id="SABAR_ZORG_" data-name="SABAR ZORG " transform="translate(15.101 98.451)" fill="#1d79b4" font-size="27" font-family="SegoeUI, Segoe UI"><tspan x="0" y="0">SABAR ZORG </tspan></text>
</svg>
