<svg xmlns="http://www.w3.org/2000/svg" width="38.525" height="46.459" viewBox="0 0 38.525 46.459">
  <g id="noun_Gentleman_518257" transform="translate(0)">
    <g id="Group_148" data-name="Group 148" transform="translate(0 0)">
      <path id="Path_108" data-name="Path 108" d="M145.61,26.911c3.932,0,7.27-2.981,8.458-7.1a13.245,13.245,0,0,0,2.661-8.148,9.3,9.3,0,0,0-11.238-8.907,8.723,8.723,0,0,1-5.532-.7,1.283,1.283,0,0,0-1.427.219A12.9,12.9,0,0,0,134.5,11.8a13.2,13.2,0,0,0,2.67,8.029C138.35,23.939,141.687,26.911,145.61,26.911Zm0-2.588c-3.493,0-6.337-3.493-6.337-7.782a8.749,8.749,0,0,1,1.838-5.477,11.026,11.026,0,0,0,10.809,4.883c.009.2.018.393.018.594C151.947,20.83,149.1,24.323,145.61,24.323ZM139.7,4.755a11.276,11.276,0,0,0,6.3.53,6.75,6.75,0,0,1,8.138,6.392c-.027.686-.091,1.308-.174,1.9a1.3,1.3,0,0,0-1.2-.384c-4.563.924-7.846-.6-10.333-4.828h0a1.29,1.29,0,0,0-1.92-.347h0a10.39,10.39,0,0,0-3.347,5.2A10.64,10.64,0,0,1,139.7,4.755Z" transform="translate(-126.352 -1.932)" fill="#fff"/>
      <path id="Path_109" data-name="Path 109" d="M78.795,305.724a40.83,40.83,0,0,0-28.265,0,7.935,7.935,0,0,0-5.13,7.453v7.645a1.288,1.288,0,0,0,1.289,1.289H82.635a1.288,1.288,0,0,0,1.289-1.289v-7.645A7.957,7.957,0,0,0,78.795,305.724Zm-9.858.311-4.28,8.02-4.27-8.02A38.189,38.189,0,0,1,68.937,306.035Zm-17.246,13.5H47.97v-6.346a5.41,5.41,0,0,1,1.865-4.087,18.666,18.666,0,0,1,1.847,8.1v2.332Zm23.345-2.341v2.341H54.279v-2.341a21.289,21.289,0,0,0-2.149-9.281,38.212,38.212,0,0,1,5.551-1.472l5.843,10.973a1.288,1.288,0,0,0,2.277,0l5.843-10.973a38.212,38.212,0,0,1,5.551,1.472A21.171,21.171,0,0,0,75.037,317.191Zm6.31,2.341H77.624v-2.341a18.8,18.8,0,0,1,1.847-8.1,5.41,5.41,0,0,1,1.865,4.087v6.355Z" transform="translate(-45.4 -275.651)" fill="#fff"/>
    </g>
  </g>
</svg>
