<svg xmlns="http://www.w3.org/2000/svg" width="184.244" height="96.886" viewBox="0 0 184.244 96.886">
  <g id="Group_14255" data-name="Group 14255" transform="translate(-235.411 8002.399)">
    <g id="Group_14254" data-name="Group 14254" transform="translate(235.411 -8002.399)">
      <path id="Path_1" data-name="Path 1" d="M623.934,356.72c-4.5,0-8.9-.011-13.3.014-.535,0-.653-.3-.838-.671-2.4-4.831-4.814-9.652-7.207-14.486a1.5,1.5,0,0,0-1.509-.943c-8.444-.285-16.886-.631-25.328-.952-6.806-.259-13.612-.5-20.418-.761q-12.577-.482-25.154-.983c-3.532-.136-7.065-.245-10.6-.392a1.177,1.177,0,0,0-1.229.655,148.04,148.04,0,0,0-8.217,15.7c-.137.3-.288.6-.432.9l-.234-.106,7.728-17.24-25.175-.958,0-.1c1.881-.076,3.762-.156,5.644-.226q10.037-.372,20.074-.732a1.017,1.017,0,0,0,1.023-.588,114.416,114.416,0,0,1,8.489-13.773c5.242-7.412,11.273-14.079,18.965-19.066,6.646-4.309,13.849-6.776,21.863-6.368a35.793,35.793,0,0,1,17.392,5.706c6.933,4.347,12.549,10.105,17.571,16.487a119.769,119.769,0,0,1,14.019,22.661c2.46,5.17,4.516,10.532,6.751,15.809A4.156,4.156,0,0,1,623.934,356.72Zm-68.507-22.732c.96-8.8,1.911-17.508,2.892-26.49-2.3.4-4.379.738-6.451,1.139-.2.039-.442.424-.485.679-.22,1.3-.379,2.611-.562,3.917q-1.083,7.711-2.167,15.421c-.259,1.84-.514,3.68-.786,5.624Zm12.832-.484c.414-8.093.825-16.114,1.243-24.29l-6.291-1.448L560.369,333.8Zm5.72-22.54c-.439,7.671-.857,14.995-1.278,22.363l7.453-.285a2.3,2.3,0,0,0,.077-.382q.1-8.617.189-17.234a.684.684,0,0,0-.185-.511C578.218,313.622,576.187,312.352,573.979,310.964Zm-31.059,23.592,3.344-24.133c-1.956,1.1-3.663,2.081-5.4,3.016a1.794,1.794,0,0,0-.921,1.427c-.945,5.038-1.917,10.071-2.877,15.106-.3,1.555-.581,3.111-.855,4.584Zm-22.738.775,11.294-.427,3.191-16.778A81.2,81.2,0,0,0,520.181,335.33Zm65.1-16.322v13.849l11.522-.45A78.966,78.966,0,0,0,585.285,319.008Z" transform="translate(-492.025 -295.608)" fill="#1473e6"/>
      <path id="Path_2" data-name="Path 2" d="M1057.531,343.517l-23.827-.9,5.967,14.066c-.46.02-.734.043-1.007.043-4.053,0-8.105-.011-12.158.015a1.068,1.068,0,0,1-1.139-.743c-2.147-4.442-4.353-8.855-6.521-13.286a1.183,1.183,0,0,0-1.207-.709c-5.053-.175-10.1-.4-15.158-.58a1.165,1.165,0,0,1-1.14-.78c-1.373-2.713-2.8-5.4-4.2-8.1-.129-.247-.235-.505-.386-.831l14.708-.576c-.172-.278-.288-.492-.428-.689a70.469,70.469,0,0,0-8.246-9.7c-5.509-5.367-11.658-9.766-19.187-11.9a11.961,11.961,0,0,0-2.42-.575,5.739,5.739,0,0,1-3.776-1.909,53.1,53.1,0,0,0-9.141-7.156c-.165-.1-.312-.234-.528-.4a34.007,34.007,0,0,1,9.256-2.809c8.745-1.328,16.74.807,24.18,5.361a64.985,64.985,0,0,1,18.145,17.212c2.644,3.57,4.989,7.363,7.423,11.085a1.472,1.472,0,0,0,1.47.848c6.747-.275,13.5-.5,20.245-.751,3-.111,6.008-.24,9.079-.364Z" transform="translate(-873.287 -295.614)" fill="#d50f21"/>
    </g>
    <text id="SABAR_ZORG_" data-name="SABAR ZORG " transform="translate(249.303 -7911.513)" fill="#1d79b4" font-size="25" font-family="SegoeUI, Segoe UI"><tspan x="0" y="0">SABAR ZORG </tspan></text>
  </g>
</svg>
