<svg xmlns="http://www.w3.org/2000/svg" width="163.459" height="135.682" viewBox="0 0 163.459 135.682">
  <path id="Path_177" data-name="Path 177" d="M668.209,549.4a27.027,27.027,0,1,0-8.479-10.524l-70.706,58.872-9.414-11.174-4.23,2.829-4.707-5.587,3.868-3.259-4.707-5.587-6.017,5.069,2.9,3.438-6.446,5.432-2.9-3.438-9.455,7.966,4.345,5.157,3.438-2.9,4.707,5.587-4.3,3.621,8.69,10.314-10.314,8.69,10.5,12.463Zm17.654-39.492A17.882,17.882,0,1,1,666.524,526.2a17.882,17.882,0,0,1,19.339-16.294Z" transform="translate(-547.916 -500.691)" fill="#1473e6" opacity="0.39"/>
</svg>
