<svg xmlns="http://www.w3.org/2000/svg" width="127.178" height="68.098" viewBox="0 0 127.178 68.098">
  <g id="Group_14260" data-name="Group 14260" transform="translate(-78.411 -21.902)">
    <g id="Group_14259" data-name="Group 14259">
      <g id="Group_14225" data-name="Group 14225" transform="translate(57.386 136.853)">
        <path id="Path_1" data-name="Path 1" d="M583.077,337.792c-3.109,0-6.144-.007-9.179.009-.369,0-.451-.206-.579-.463-1.655-3.335-3.323-6.663-4.974-10a1.036,1.036,0,0,0-1.042-.651c-5.828-.2-11.656-.436-17.483-.657-4.7-.179-9.4-.345-14.094-.525q-8.682-.333-17.363-.678c-2.438-.094-4.877-.169-7.315-.27a.813.813,0,0,0-.848.452,102.184,102.184,0,0,0-5.672,10.84c-.095.21-.2.415-.3.623l-.161-.073,5.334-11.9-17.377-.662v-.069c1.3-.052,2.6-.108,3.9-.156q6.928-.257,13.856-.505a.7.7,0,0,0,.706-.406,78.98,78.98,0,0,1,5.86-9.507,48.709,48.709,0,0,1,13.091-13.161,23.982,23.982,0,0,1,27.1-.457,48.209,48.209,0,0,1,12.129,11.381,82.671,82.671,0,0,1,9.677,15.642c1.7,3.568,3.117,7.27,4.66,10.912A2.869,2.869,0,0,1,583.077,337.792ZM535.789,322.1l2-18.285c-1.585.273-3.023.509-4.453.786-.141.027-.305.293-.335.469-.152.9-.262,1.8-.388,2.7q-.748,5.323-1.5,10.645c-.178,1.27-.355,2.54-.542,3.882Zm8.857-.334L545.5,305l-4.342-1L539.2,321.973Zm3.948-15.559c-.3,5.3-.592,10.35-.882,15.437l5.145-.2a1.588,1.588,0,0,0,.053-.264q.07-5.948.13-11.9a.472.472,0,0,0-.127-.353C551.521,308.043,550.119,307.166,548.595,306.208Zm-21.439,16.285,2.308-16.658c-1.35.758-2.529,1.436-3.725,2.082a1.238,1.238,0,0,0-.636.985c-.652,3.478-1.323,6.952-1.986,10.427-.2,1.073-.4,2.148-.591,3.164Zm-15.7.535,7.8-.295,2.2-11.581A56.053,56.053,0,0,0,511.46,323.027ZM556.4,311.76v9.56l7.953-.311A54.507,54.507,0,0,0,556.4,311.76Z" transform="translate(-471 -410.559)" fill="#1473e6"/>
        <path id="Path_2" data-name="Path 2" d="M1029.717,328.681l-16.447-.618,4.119,9.709c-.318.014-.507.029-.7.03-2.8,0-5.595-.008-8.392.01a.737.737,0,0,1-.786-.513c-1.482-3.066-3-6.112-4.5-9.171a.816.816,0,0,0-.833-.489c-3.488-.121-6.975-.277-10.463-.4a.8.8,0,0,1-.787-.539c-.948-1.873-1.932-3.727-2.9-5.589-.089-.171-.162-.349-.266-.574l10.153-.4c-.118-.192-.2-.339-.3-.475a48.645,48.645,0,0,0-5.692-6.7c-3.8-3.7-8.047-6.741-13.244-8.217a8.256,8.256,0,0,0-1.67-.4,3.962,3.962,0,0,1-2.606-1.318,36.658,36.658,0,0,0-6.31-4.939c-.114-.071-.216-.161-.364-.274a23.473,23.473,0,0,1,6.389-1.939,24.2,24.2,0,0,1,16.691,3.7,44.856,44.856,0,0,1,12.525,11.881c1.825,2.464,3.444,5.082,5.124,7.652a1.016,1.016,0,0,0,1.015.586c4.657-.19,9.316-.346,13.974-.518,2.074-.077,4.147-.166,6.267-.251Z" transform="translate(-881.515 -410.566)" fill="#d50f21"/>
      </g>
      <text id="SABAR_ZORG_" data-name="SABAR ZORG " transform="translate(88 85)" fill="#1d79b4" font-size="18" font-family="SegoeUI, Segoe UI"><tspan x="0" y="0">SABAR ZORG </tspan></text>
    </g>
  </g>
</svg>
