<svg xmlns="http://www.w3.org/2000/svg" width="671" height="356.236" viewBox="0 0 671 356.236">
  <g id="Group_14259" data-name="Group 14259" transform="translate(-78.412 -551.9)">
    <g id="Group_14251" data-name="Group 14251" transform="translate(78.412 551.9)">
      <path id="Path_1" data-name="Path 1" d="M972.423,518.174c-16.4,0-32.418-.039-48.43.05-1.949.011-2.38-1.087-3.053-2.444-8.732-17.594-17.533-35.153-26.245-52.756-1.185-2.394-2.634-3.338-5.5-3.435-30.752-1.037-61.5-2.3-92.244-3.468-24.786-.943-49.573-1.819-74.359-2.77q-45.805-1.756-91.609-3.578c-12.864-.5-25.731-.891-38.594-1.427a4.288,4.288,0,0,0-4.474,2.387A539.111,539.111,0,0,0,558,507.925c-.5,1.107-1.047,2.192-1.572,3.288l-.851-.387,28.143-62.787-91.684-3.49-.006-.364c6.851-.276,13.7-.569,20.554-.823q36.552-1.356,73.106-2.664c1.71-.061,2.86-.451,3.727-2.142a416.7,416.7,0,0,1,30.916-50.16c19.09-26.995,41.055-51.275,69.069-69.437,24.2-15.692,50.438-24.676,79.624-23.191,22.963,1.168,43.951,8.624,63.339,20.78,25.25,15.831,45.7,36.8,63.993,60.046a436.175,436.175,0,0,1,51.057,82.528c8.961,18.827,16.447,38.356,24.588,57.574A15,15,0,0,1,972.423,518.174Zm-249.5-82.789c3.5-32.042,6.96-63.761,10.531-96.474-8.362,1.442-15.949,2.688-23.495,4.148-.742.144-1.609,1.544-1.766,2.472-.8,4.735-1.38,9.508-2.048,14.266q-3.944,28.082-7.893,56.164c-.942,6.7-1.873,13.4-2.862,20.484Zm46.733-1.764c1.509-29.473,3-58.686,4.528-88.461l-22.91-5.274c-3.49,31.975-6.905,63.266-10.349,94.825Zm20.833-82.088c-1.6,27.938-3.122,54.609-4.656,81.445l27.144-1.037a8.4,8.4,0,0,0,.281-1.393q.371-31.382.688-62.763a2.49,2.49,0,0,0-.672-1.863C805.933,361.215,798.536,356.59,790.493,351.533Zm-113.115,85.92c4.078-29.428,8.053-58.116,12.179-87.889-7.123,4-13.341,7.577-19.652,10.983-2.186,1.179-2.926,2.913-3.354,5.2-3.442,18.348-6.981,36.678-10.477,55.016-1.079,5.662-2.115,11.331-3.116,16.695Zm-82.81,2.821,41.133-1.555c3.845-20.213,7.657-40.261,11.62-61.1C626.217,396.1,609.647,417.146,594.568,440.273Zm237.1-59.444v50.437l41.962-1.64C861.26,411.8,847.861,395.707,831.67,380.829Z" transform="translate(-492.025 -295.608)" fill="#fff"/>
      <path id="Path_2" data-name="Path 2" d="M1294.767,470.068l-86.775-3.262,21.73,51.226c-1.677.074-2.673.155-3.669.156-14.76.008-29.519-.04-44.279.055-2.2.014-3.168-.678-4.148-2.705-7.819-16.176-15.851-32.248-23.75-48.386-.962-1.965-2.257-2.506-4.4-2.58-18.4-.638-36.8-1.459-55.205-2.111-2.2-.078-3.187-.94-4.151-2.842-5-9.881-10.194-19.665-15.308-29.489-.469-.9-.857-1.839-1.406-3.027l53.566-2.1c-.625-1.012-1.05-1.79-1.559-2.508a256.679,256.679,0,0,0-30.032-35.334c-20.062-19.548-42.457-35.565-69.876-43.351-2.908-.826-5.841-1.9-8.812-2.093-5.687-.37-9.781-3.053-13.752-6.953a193.4,193.4,0,0,0-33.291-26.06c-.6-.374-1.137-.85-1.923-1.445a123.848,123.848,0,0,1,33.708-10.229c31.85-4.837,60.965,2.939,88.061,19.525,26.46,16.2,47.776,37.965,66.083,62.685,9.629,13,18.17,26.815,27.034,40.372,1.405,2.149,2.631,3.2,5.355,3.09,24.573-1,49.152-1.827,73.728-2.735,10.941-.4,21.882-.875,33.065-1.325Z" transform="translate(-623.767 -295.61)" fill="#fff"/>
    </g>
    <text id="SABAR_ZORG_" data-name="SABAR ZORG " transform="translate(129.912 885.137)" fill="#fff" font-size="93" font-family="SegoeUI, Segoe UI"><tspan x="0" y="0">SABAR ZORG </tspan></text>
  </g>
</svg>
