<svg xmlns="http://www.w3.org/2000/svg" width="99.001" height="116.472" viewBox="0 0 99.001 116.472">
  <g id="Group_14259" data-name="Group 14259" transform="translate(-488.594 -2857.425)">
    <path id="Fill_1" data-name="Fill 1" d="M50,116.472a4.554,4.554,0,0,1-2.093-.5L26.94,105.114A49.228,49.228,0,0,1,12.7,94.538,48,48,0,0,1,.246,62.661L0,24.018a10.558,10.558,0,0,1,7.153-9.971L45.66.622a10.962,10.962,0,0,1,7.164-.04L91.478,13.551a10.535,10.535,0,0,1,7.276,9.874L99,62.1a48,48,0,0,1-12.031,32,49.053,49.053,0,0,1-14.1,10.742l-20.784,11.1a4.449,4.449,0,0,1-2.081.531" transform="translate(488.594 2857.425)" fill="#e2f1f8" opacity="0.62"/>
    <g id="Secure_Payments" data-name="Secure Payments" transform="translate(500.58 2871.631)">
      <path id="Fill_1-2" data-name="Fill 1" d="M37.9,88.269a3.451,3.451,0,0,1-1.586-.381L20.417,79.661A37.308,37.308,0,0,1,9.624,71.646,36.379,36.379,0,0,1,.187,47.488L0,18.2a8,8,0,0,1,5.421-7.556L34.6.471a8.308,8.308,0,0,1,5.43-.03l29.294,9.828a7.984,7.984,0,0,1,5.514,7.483l.187,29.308A36.378,36.378,0,0,1,65.91,71.313a37.175,37.175,0,0,1-10.686,8.141L39.473,87.866a3.372,3.372,0,0,1-1.577.4" transform="translate(0 0)" fill="#d50f21"/>
      <path id="Fill_4" data-name="Fill 4" d="M11.812,23.458a3.37,3.37,0,0,1-2.364-.935L.988,14.387A3.186,3.186,0,0,1,.961,9.8a3.4,3.4,0,0,1,4.714-.03l6.087,5.851L26.625.966a3.4,3.4,0,0,1,4.714-.03,3.183,3.183,0,0,1,.031,4.587L14.162,22.493a3.355,3.355,0,0,1-2.35.965" transform="translate(22.698 30.92)" fill="#fff"/>
    </g>
  </g>
</svg>
