<svg xmlns="http://www.w3.org/2000/svg" width="42" height="42" viewBox="0 0 42 42">
  <g id="Facebook" transform="translate(0 0.094)">
    <circle id="Ellipse_9" data-name="Ellipse 9" cx="21" cy="21" r="21" transform="translate(0 -0.094)" fill="rgba(5,62,255,0.2)"/>
    <path id="facebook_1_" data-name="facebook (1)" d="M126.937,8.422h1.733v7.136a.255.255,0,0,0,.255.255h2.939a.255.255,0,0,0,.255-.255v-7.1h1.993a.255.255,0,0,0,.253-.226l.3-2.627a.255.255,0,0,0-.253-.284h-2.3V3.672c0-.5.267-.748.795-.748h1.5a.255.255,0,0,0,.255-.255V.257A.255.255,0,0,0,134.415,0h-2.068l-.095,0a3.963,3.963,0,0,0-2.592.977,2.718,2.718,0,0,0-.9,2.416V5.319h-1.82a.255.255,0,0,0-.255.255V8.167A.255.255,0,0,0,126.937,8.422Z" transform="translate(-109.682 12.906)" fill="#385c8e"/>
  </g>
</svg>
