<svg xmlns="http://www.w3.org/2000/svg" xmlns:xlink="http://www.w3.org/1999/xlink" width="42" height="42" viewBox="0 0 42 42">
  <defs>
    <linearGradient id="linear-gradient" x1="0.5" y1="0.008" x2="0.5" y2="0.998" gradientUnits="objectBoundingBox">
      <stop offset="0" stop-color="#e09b3d"/>
      <stop offset="0.3" stop-color="#c74c4d"/>
      <stop offset="0.6" stop-color="#c21975"/>
      <stop offset="1" stop-color="#7024c4"/>
    </linearGradient>
    <linearGradient id="linear-gradient-2" y1="-0.451" y2="1.462" xlink:href="#linear-gradient"/>
    <linearGradient id="linear-gradient-3" y1="-1.396" y2="6.586" xlink:href="#linear-gradient"/>
  </defs>
  <g id="Group_14259" data-name="Group 14259" transform="translate(-122 -20.906)">
    <circle id="Ellipse_7" data-name="Ellipse 7" cx="21" cy="21" r="21" transform="translate(122 20.906)" fill="rgba(152,128,59,0.2)"/>
    <g id="instagram" transform="translate(134 32.906)">
      <path id="Path_129" data-name="Path 129" d="M12.277,0H5.209A5.215,5.215,0,0,0,0,5.209v7.068a5.215,5.215,0,0,0,5.209,5.209h7.068a5.215,5.215,0,0,0,5.209-5.209V5.209A5.215,5.215,0,0,0,12.277,0Zm3.45,12.277a3.45,3.45,0,0,1-3.45,3.45H5.209a3.45,3.45,0,0,1-3.45-3.45V5.209a3.45,3.45,0,0,1,3.45-3.45h7.068a3.45,3.45,0,0,1,3.45,3.45v7.068Z" fill="url(#linear-gradient)"/>
      <path id="Path_130" data-name="Path 130" d="M137.523,133a4.523,4.523,0,1,0,4.523,4.523A4.528,4.528,0,0,0,137.523,133Zm0,7.286a2.763,2.763,0,1,1,2.763-2.763A2.763,2.763,0,0,1,137.523,140.286Z" transform="translate(-128.779 -128.779)" fill="url(#linear-gradient-2)"/>
      <circle id="Ellipse_664" data-name="Ellipse 664" cx="1.084" cy="1.084" r="1.084" transform="translate(12.191 3.171)" fill="url(#linear-gradient-3)"/>
    </g>
  </g>
</svg>
