<svg xmlns="http://www.w3.org/2000/svg" width="42" height="42" viewBox="0 0 42 42">
  <g id="Twitter" transform="translate(-59 0.094)">
    <circle id="Ellipse_8" data-name="Ellipse 8" cx="21" cy="21" r="21" transform="translate(59 -0.094)" fill="rgba(76,212,234,0.2)"/>
    <path id="twitter_1_" data-name="twitter (1)" d="M20,49.924a8.549,8.549,0,0,1-2.362.647,4.077,4.077,0,0,0,1.8-2.266,8.194,8.194,0,0,1-2.6.993,4.1,4.1,0,0,0-7.092,2.8,4.222,4.222,0,0,0,.1.935,11.606,11.606,0,0,1-8.451-4.289,4.1,4.1,0,0,0,1.26,5.48A4.049,4.049,0,0,1,.8,53.722v.045A4.119,4.119,0,0,0,4.085,57.8a4.092,4.092,0,0,1-1.075.135,3.625,3.625,0,0,1-.776-.07,4.139,4.139,0,0,0,3.831,2.856A8.239,8.239,0,0,1,.981,62.466,7.68,7.68,0,0,1,0,62.41a11.543,11.543,0,0,0,6.29,1.84A11.59,11.59,0,0,0,17.96,52.582c0-.181-.006-.356-.015-.53A8.18,8.18,0,0,0,20,49.924Z" transform="translate(70 -34.219)" fill="#03a9f4"/>
  </g>
</svg>
