<svg xmlns="http://www.w3.org/2000/svg" width="367.391" height="121.898" viewBox="0 0 367.391 121.898">
  <g id="Group_14231" data-name="Group 14231" transform="translate(-21.025 114.951)">
    <path id="Path_1" data-name="Path 1" d="M755.057,417.469c-8.982,0-17.75-.021-26.517.027-1.067.006-1.3-.6-1.672-1.338-4.781-9.633-9.6-19.247-14.37-28.885a2.992,2.992,0,0,0-3.009-1.881c-16.837-.568-33.671-1.259-50.506-1.9-13.571-.516-27.143-1-40.714-1.517q-25.08-.961-50.158-1.959c-7.043-.272-14.089-.488-21.131-.781a2.348,2.348,0,0,0-2.45,1.307,295.167,295.167,0,0,0-16.385,31.314c-.274.606-.573,1.2-.861,1.8l-.466-.212,15.409-34.378-50.2-1.911,0-.2c3.751-.151,7.5-.312,11.254-.451q20.014-.742,40.028-1.459a2.027,2.027,0,0,0,2.04-1.173,228.165,228.165,0,0,1,16.928-27.464c10.452-14.78,22.479-28.075,37.817-38.019,13.252-8.592,27.616-13.511,43.6-12.7,12.573.639,24.064,4.722,34.68,11.378,13.825,8.668,25.024,20.151,35.038,32.877a238.823,238.823,0,0,1,27.955,45.186c4.906,10.308,9.005,21,13.462,31.523A8.233,8.233,0,0,1,755.057,417.469ZM618.451,372.14c1.915-17.544,3.811-34.911,5.766-52.822-4.578.789-8.733,1.472-12.864,2.271-.406.079-.881.846-.967,1.354-.438,2.593-.755,5.206-1.122,7.811q-2.159,15.376-4.322,30.751c-.516,3.668-1.026,7.337-1.567,11.215Zm25.588-.966c.826-16.138,1.645-32.132,2.479-48.435l-12.544-2.888c-1.911,17.507-3.781,34.64-5.667,51.919Zm11.406-44.946c-.875,15.3-1.709,29.9-2.549,44.594l14.862-.568a4.575,4.575,0,0,0,.154-.763q.2-17.182.377-34.365a1.364,1.364,0,0,0-.368-1.02C663.9,331.53,659.848,329,655.445,326.228Zm-61.934,47.044,6.669-48.122c-3.9,2.189-7.3,4.149-10.76,6.013a3.577,3.577,0,0,0-1.837,2.844c-1.885,10.046-3.822,20.082-5.736,30.123-.591,3.1-1.158,6.2-1.706,9.141Zm-45.341,1.544,22.522-.851c2.105-11.067,4.192-22.044,6.362-33.456C565.5,350.63,556.426,362.153,548.17,374.816Zm129.82-32.547v27.616l22.975-.9A157.458,157.458,0,0,0,677.99,342.269Z" transform="translate(-471 -410.559)" fill="#1473e6"/>
    <path id="Path_2" data-name="Path 2" d="M1146.793,391.134l-47.512-1.786,11.9,28.048c-.918.04-1.463.085-2.008.086-8.082,0-16.163-.022-24.244.03a2.128,2.128,0,0,1-2.271-1.481c-4.281-8.857-8.679-17.657-13-26.493a2.359,2.359,0,0,0-2.407-1.413c-10.076-.349-20.15-.8-30.226-1.156a2.322,2.322,0,0,1-2.272-1.556c-2.738-5.41-5.582-10.767-8.382-16.146-.257-.493-.469-1.007-.77-1.657l29.329-1.148c-.342-.554-.575-.98-.854-1.373a140.511,140.511,0,0,0-16.443-19.346c-10.984-10.7-23.246-19.473-38.259-23.736a23.85,23.85,0,0,0-4.825-1.146c-3.114-.2-5.355-1.671-7.53-3.807a105.894,105.894,0,0,0-18.228-14.268c-.329-.205-.623-.466-1.053-.791a67.8,67.8,0,0,1,18.456-5.6c17.439-2.649,33.38,1.609,48.216,10.69,14.488,8.868,26.159,20.787,36.182,34.322,5.272,7.119,9.949,14.682,14.8,22.1a2.935,2.935,0,0,0,2.932,1.692c13.454-.548,26.912-1,40.368-1.5,5.991-.221,11.98-.479,18.1-.726Z" transform="translate(-758.377 -410.564)" fill="#d50f21"/>
  </g>
</svg>
