<svg xmlns="http://www.w3.org/2000/svg" width="320.545" height="568.254" viewBox="0 0 320.545 568.254">
  <g id="Group_14260" data-name="Group 14260" transform="translate(-1699 -564.393)">
    <g id="Group_14253" data-name="Group 14253" transform="translate(1701.636 408.353)">
      <circle id="Ellipse_669" data-name="Ellipse 669" cx="5.876" cy="5.876" r="5.876" transform="translate(37.21 216.445)" fill="#1370e1"/>
      <path id="Path_134" data-name="Path 134" d="M493.244,115.4h-2.753a152.5,152.5,0,0,0,118.853,94.9v-2.6a149.878,149.878,0,0,1-116.1-92.294Z" transform="translate(-357.997 40.643)" fill="#1370e1"/>
      <path id="Path_135" data-name="Path 135" d="M432.844,115.4h-2.653c22.186,77.008,89.13,134.332,169.471,143.642v-2.56C520.714,247.212,454.92,190.979,432.844,115.4Z" transform="translate(-348.314 40.643)" fill="#1370e1"/>
      <path id="Path_136" data-name="Path 136" d="M265.784,159.529h-1.529V158h-.3v1.529h-1.53v.3h1.53v1.529h.3v-1.529h1.529Z" transform="translate(-242.004 106.292)" fill="#1370e1"/>
      <path id="Path_138" data-name="Path 138" d="M283.784,231.529h-1.529V230h-.3v1.529h-1.53v.3h1.53v1.529h.3v-1.529h1.529Z" transform="translate(-244.895 94.73)" fill="#1370e1"/>
      <path id="Path_139" data-name="Path 139" d="M367.784,178.529h-1.529V177h-.3v1.529h-1.53v.3h1.53v1.529h.3v-1.529h1.529Z" transform="translate(-258.383 103.241)" fill="#1370e1"/>
      <path id="Path_140" data-name="Path 140" d="M487.784,211.529h-1.529V210h-.3v1.529h-1.53v.3h1.53v1.529h.3v-1.529h1.529Z" transform="translate(-277.653 97.942)" fill="#1370e1"/>
      <circle id="Ellipse_670" data-name="Ellipse 670" cx="3.358" cy="3.358" r="3.358" transform="translate(189.145 233.233)" fill="#1370e1"/>
      <path id="Path_141" data-name="Path 141" d="M418.316,305.158l-1.905.294c.6,3.811,1.066,7.706,1.41,11.559l1.922-.168C419.4,312.939,418.921,309.011,418.316,305.158Z" transform="translate(-346.101 10.171)" fill="#1370e1"/>
      <path id="Path_142" data-name="Path 142" d="M412.118,277.818l-1.847.562c1.116,3.693,2.115,7.479,2.963,11.248l1.889-.428C414.258,285.39,413.243,281.562,412.118,277.818Z" transform="translate(-345.115 14.561)" fill="#1370e1"/>
      <path id="Path_143" data-name="Path 143" d="M402.225,251.6l-1.754.806c1.612,3.517,3.123,7.127,4.491,10.736l1.8-.68C405.382,258.809,403.862,255.149,402.225,251.6Z" transform="translate(-343.542 18.772)" fill="#1370e1"/>
      <path id="Path_144" data-name="Path 144" d="M388.849,227.018l-1.628,1.032c2.073,3.257,4.063,6.631,5.91,10.014l1.7-.923C392.963,233.717,390.948,230.309,388.849,227.018Z" transform="translate(-341.414 22.719)" fill="#1370e1"/>
      <path id="Path_145" data-name="Path 145" d="M372.22,204.488l-1.469,1.251c2.5,2.938,4.936,6.01,7.236,9.116l1.545-1.15C377.215,210.565,374.755,207.46,372.22,204.488Z" transform="translate(-338.769 26.337)" fill="#1370e1"/>
      <path id="Path_146" data-name="Path 146" d="M352.675,184.428l-1.284,1.435c2.888,2.577,5.716,5.288,8.411,8.05l1.385-1.351C358.459,189.767,355.6,187.03,352.675,184.428Z" transform="translate(-335.66 29.558)" fill="#1370e1"/>
      <path id="Path_147" data-name="Path 147" d="M330.594,167.208l-1.083,1.595c3.207,2.157,6.38,4.457,9.427,6.833l1.192-1.519C337.041,171.716,333.834,169.39,330.594,167.208Z" transform="translate(-332.147 32.323)" fill="#1370e1"/>
      <path id="Path_149" data-name="Path 149" d="M418.161,520.071c.313-1.877.6-3.794.852-5.7l1.913.254c-.255,1.924-.545,3.861-.861,5.759Z" transform="translate(-346.382 -23.425)" fill="#1370e1"/>
      <path id="Path_150" data-name="Path 150" d="M411.752,545.992l1.845.574c1.157-3.73,2.2-7.551,3.112-11.359l-1.88-.445C413.929,538.53,412.9,542.3,411.752,545.992Z" transform="translate(-345.353 -26.699)" fill="#1370e1"/>
      <path id="Path_151" data-name="Path 151" d="M401.71,571.926l1.751.821c1.665-3.532,3.224-7.172,4.637-10.815l-1.8-.7C404.9,564.833,403.359,568.433,401.71,571.926Z" transform="translate(-343.741 -30.949)" fill="#1370e1"/>
      <path id="Path_152" data-name="Path 152" d="M388.2,596.3l1.619,1.051c2.135-3.273,4.183-6.667,6.09-10.081l-1.683-.944C392.342,589.7,390.311,593.053,388.2,596.3Z" transform="translate(-341.571 -34.978)" fill="#1370e1"/>
      <path id="Path_153" data-name="Path 153" d="M371.482,618.613l1.463,1.268c2.568-2.962,5.058-6.043,7.417-9.158l-1.546-1.156C376.49,612.647,374.025,615.69,371.482,618.613Z" transform="translate(-338.887 -38.711)" fill="#1370e1"/>
      <path id="Path_154" data-name="Path 154" d="M351.907,638.465l1.271,1.451c2.952-2.575,5.838-5.292,8.6-8.052l-1.365-1.367C357.682,633.228,354.821,635.908,351.907,638.465Z" transform="translate(-335.743 -42.072)" fill="#1370e1"/>
      <path id="Path_155" data-name="Path 155" d="M329.855,655.492l1.066,1.615c3.259-2.152,6.5-4.446,9.6-6.809l-1.167-1.541C336.28,651.1,333.083,653.367,329.855,655.492Z" transform="translate(-332.202 -45.004)" fill="#1370e1"/>
      <path id="Path_157" data-name="Path 157" d="M418.836,333.457l1.93-.035c.035,1.948.038,3.907.008,5.822l-1.929-.03C418.873,337.32,418.87,335.384,418.836,333.457Z" transform="translate(-346.491 5.632)" fill="#1370e1"/>
      <path id="Path_159" data-name="Path 159" d="M475.565,750.928c-.193-.315-4.735-7.9-6.31-23.648-1.444-14.449-.516-38.8,12.115-72.776,23.928-64.359-5.514-116.288-5.815-116.8l1.453-.843c.076.131,7.674,13.371,12.162,34.453a150.308,150.308,0,0,1-6.225,83.78c-23.887,64.249-6.128,94.664-5.946,94.965Z" transform="translate(-354.505 -27.035)" fill="#1370e1"/>
      <circle id="Ellipse_671" data-name="Ellipse 671" cx="10.912" cy="10.912" r="10.912" transform="translate(100.791 485.059)" fill="#1370e1"/>
      <circle id="Ellipse_672" data-name="Ellipse 672" cx="10.912" cy="10.912" r="10.912" transform="translate(135.207 525.352)" fill="#1370e1"/>
      <circle id="Ellipse_673" data-name="Ellipse 673" cx="10.912" cy="10.912" r="10.912" transform="translate(111.704 552.213)" fill="#1370e1"/>
      <circle id="Ellipse_674" data-name="Ellipse 674" cx="10.912" cy="10.912" r="10.912" transform="translate(140.244 574.877)" fill="#1370e1"/>
      <circle id="Ellipse_675" data-name="Ellipse 675" cx="10.912" cy="10.912" r="10.912" transform="translate(103.31 610.133)" fill="#1370e1"/>
      <path id="Path_160" data-name="Path 160" d="M484.39,783.366s-10.912-26.861,21.825-47.008Z" transform="translate(-356.737 -59.071)" fill="#1370e1"/>
      <circle id="Ellipse_676" data-name="Ellipse 676" cx="67.154" cy="67.154" r="67.154" transform="translate(3.633 349.073)" fill="#1370e1" opacity="0.2"/>
      <circle id="Ellipse_677" data-name="Ellipse 677" cx="47.291" cy="47.291" r="47.291" transform="translate(23.496 368.936)" fill="#1370e1" opacity="0.2"/>
      <circle id="Ellipse_678" data-name="Ellipse 678" cx="31.212" cy="31.212" r="31.212" transform="translate(39.575 385.014)" fill="#1370e1"/>
      <path id="Path_162" data-name="Path 162" d="M421.57,416.252a5.675,5.675,0,1,0-9.26,4.4l-2.09,14.63h11.35l-2.09-14.63a5.662,5.662,0,0,0,2.09-4.4Z" transform="translate(-345.107 -6.757)" fill="#1370e1"/>
      <path id="Path_177" data-name="Path 177" d="M648.892,541.578a22.687,22.687,0,1,0-7.117-8.834l-59.352,49.418-7.9-9.379-3.551,2.375-3.951-4.69,3.247-2.736-3.951-4.69-5.05,4.255,2.432,2.886-5.411,4.559-2.432-2.886-7.936,6.687,3.647,4.329,2.886-2.432,3.951,4.69-3.607,3.04,7.295,8.658-8.658,7.295,8.815,10.462Zm14.819-33.15a15.01,15.01,0,1,1-16.234,13.678,15.01,15.01,0,0,1,16.234-13.678Z" transform="translate(-367.218 62.434)" fill="#1370e1"/>
    </g>
  </g>
</svg>
