<svg xmlns="http://www.w3.org/2000/svg" xmlns:xlink="http://www.w3.org/1999/xlink" width="346" height="346" viewBox="0 0 346 346">
  <defs>
    <linearGradient id="linear-gradient" x1="0.5" x2="0.5" y2="1" gradientUnits="objectBoundingBox">
      <stop offset="0" stop-color="#1473e6"/>
      <stop offset="1" stop-color="#0a3a73"/>
    </linearGradient>
    <filter id="Ellipse_711" x="0" y="0" width="346" height="346" filterUnits="userSpaceOnUse">
      <feOffset dy="3" input="SourceAlpha"/>
      <feGaussianBlur stdDeviation="3" result="blur"/>
      <feFlood flood-opacity="0.161"/>
      <feComposite operator="in" in2="blur"/>
      <feComposite in="SourceGraphic"/>
    </filter>
  </defs>
  <g id="Group_14259" data-name="Group 14259" transform="translate(-1021 -993)">
    <g id="Group_14258" data-name="Group 14258" transform="translate(195.242 59.242)">
      <g transform="matrix(1, 0, 0, 1, 825.76, 933.76)" filter="url(#Ellipse_711)">
        <g id="Ellipse_711-2" data-name="Ellipse 711" transform="translate(9 6)" stroke="#edf6fb" stroke-width="10" fill="url(#linear-gradient)">
          <circle cx="164" cy="164" r="164" stroke="none"/>
          <circle cx="164" cy="164" r="159" fill="none"/>
        </g>
      </g>
      <g id="Group_14252" data-name="Group 14252" transform="translate(902.257 1052.584)">
        <g id="Group_14251" data-name="Group 14251" transform="translate(0)">
          <path id="Path_1" data-name="Path 1" d="M630.342,359.69c-4.723,0-9.334-.011-13.944.014-.561,0-.685-.313-.879-.7-2.514-5.066-5.048-10.121-7.557-15.19a1.573,1.573,0,0,0-1.582-.989c-8.854-.3-17.706-.662-26.559-1-7.136-.271-14.273-.524-21.41-.8q-13.188-.506-26.376-1.03c-3.7-.143-7.409-.256-11.112-.411a1.235,1.235,0,0,0-1.288.687,155.223,155.223,0,0,0-8.616,16.467c-.144.319-.3.631-.453.947l-.245-.111,8.1-18.078-26.4-1,0-.1c1.972-.079,3.945-.164,5.918-.237q10.524-.39,21.049-.767a1.066,1.066,0,0,0,1.073-.617,119.976,119.976,0,0,1,8.9-14.442c5.5-7.772,11.821-14.763,19.886-19.992,6.969-4.518,14.522-7.1,22.926-6.677a37.532,37.532,0,0,1,18.237,5.983c7.27,4.558,13.159,10.6,18.425,17.289a125.582,125.582,0,0,1,14.7,23.762c2.58,5.421,4.736,11.044,7.079,16.577A4.327,4.327,0,0,1,630.342,359.69Zm-71.835-23.837,3.032-27.777c-2.408.415-4.592.774-6.765,1.194-.214.041-.463.445-.509.712-.23,1.363-.4,2.738-.59,4.108q-1.136,8.085-2.273,16.171c-.271,1.929-.539,3.858-.824,5.9Zm13.455-.508c.434-8.486.865-16.9,1.3-25.47l-6.6-1.519-2.98,27.3Zm6-23.635c-.46,8.044-.9,15.723-1.34,23.45l7.815-.3a2.417,2.417,0,0,0,.081-.4q.107-9.035.2-18.071a.717.717,0,0,0-.194-.536C582.406,314.5,580.276,313.166,577.96,311.71Zm-32.568,24.738,3.507-25.305c-2.051,1.151-3.841,2.182-5.658,3.162a1.881,1.881,0,0,0-.966,1.5c-.991,5.283-2.01,10.56-3.017,15.84-.311,1.63-.609,3.263-.9,4.807Zm-23.843.812,11.843-.448c1.107-5.82,2.2-11.592,3.346-17.593A85.149,85.149,0,0,0,521.549,337.26Zm68.267-17.115v14.522l12.082-.472A82.805,82.805,0,0,0,589.816,320.145Z" transform="translate(-492.025 -295.608)" fill="#fff"/>
          <path id="Path_2" data-name="Path 2" d="M1061.893,345.845l-24.984-.939,6.257,14.749c-.483.021-.77.045-1.056.045-4.25,0-8.5-.011-12.749.016a1.119,1.119,0,0,1-1.194-.779c-2.251-4.657-4.564-9.285-6.838-13.931a1.24,1.24,0,0,0-1.266-.743c-5.3-.184-10.6-.42-15.895-.608a1.221,1.221,0,0,1-1.2-.818c-1.439-2.845-2.935-5.662-4.407-8.49-.135-.259-.247-.53-.4-.871l15.423-.6c-.18-.291-.3-.516-.449-.722a73.9,73.9,0,0,0-8.647-10.173c-5.776-5.628-12.224-10.24-20.119-12.482a12.546,12.546,0,0,0-2.537-.6,6.018,6.018,0,0,1-3.959-2,55.684,55.684,0,0,0-9.585-7.5c-.173-.108-.328-.245-.554-.416a35.657,35.657,0,0,1,9.705-2.945c9.17-1.393,17.553.846,25.355,5.622a68.143,68.143,0,0,1,19.027,18.048c2.772,3.744,5.232,7.721,7.784,11.624a1.543,1.543,0,0,0,1.542.89c7.075-.288,14.152-.526,21.228-.787,3.15-.116,6.3-.252,9.52-.382Z" transform="translate(-868.697 -295.614)" fill="#fff"/>
        </g>
        <text id="SABAR_ZORG_" data-name="SABAR ZORG " transform="translate(14.718 95.146)" fill="#fff" font-size="26" font-family="SegoeUI, Segoe UI"><tspan x="0" y="0">SABAR ZORG </tspan></text>
      </g>
    </g>
  </g>
</svg>
