<svg xmlns="http://www.w3.org/2000/svg" width="47.364" height="47.364" viewBox="0 0 47.364 47.364">
  <g id="Group_14259" data-name="Group 14259" transform="translate(-24.488 -28.388)">
    <circle id="Ellipse_708" data-name="Ellipse 708" cx="23.682" cy="23.682" r="23.682" transform="translate(24.488 28.388)" fill="#1473e6"/>
    <path id="Icon_awesome-phone" data-name="Icon awesome-phone" d="M1.092,1.445,7.2.035A1.419,1.419,0,0,1,8.817.852l2.82,6.58a1.406,1.406,0,0,1-.405,1.645l-3.56,2.914A21.773,21.773,0,0,0,18.082,22.4L21,18.841a1.408,1.408,0,0,1,1.645-.405l6.58,2.82a1.427,1.427,0,0,1,.822,1.622l-1.41,6.11a1.41,1.41,0,0,1-1.375,1.093A27.257,27.257,0,0,1,0,2.82,1.408,1.408,0,0,1,1.092,1.445Z" transform="translate(33.129 37.076)" fill="#fff"/>
  </g>
</svg>
